<?xml version="1.0" standalone="no"?>
<!DOCTYPE svg PUBLIC "-//W3C//DTD SVG 20010904//EN"
 "http://www.w3.org/TR/2001/REC-SVG-20010904/DTD/svg10.dtd">
<svg version="1.0" xmlns="http://www.w3.org/2000/svg"
 width="220.000000pt" height="220.000000pt" viewBox="0 0 220.000000 220.000000"
 preserveAspectRatio="xMidYMid meet">

<g transform="translate(0.000000,220.000000) scale(0.100000,-0.100000)"
fill="#000000" stroke="none">
<path d="M505 2168 c-2 -7 -11 -62 -19 -121 -20 -138 -42 -187 -121 -267 -53
-54 -71 -82 -106 -165 -77 -181 -147 -275 -204 -275 l-25 0 0 -314 c0 -184 4
-317 9 -321 5 -3 76 -19 158 -35 211 -43 536 -58 643 -30 74 20 144 103 134
160 -5 25 7 48 60 115 28 35 29 39 17 78 -25 84 -25 95 3 128 40 47 42 72 11
124 l-27 46 26 49 c14 27 26 57 26 65 0 27 -38 91 -70 118 -37 32 -73 37 -270
40 l-155 2 -3 37 c-2 26 9 63 42 135 53 117 66 162 66 228 0 96 -36 167 -101
200 -34 18 -88 20 -94 3z m475 -813 l0 -45 -75 0 -75 0 0 -85 0 -85 60 0 60 0
0 -45 0 -45 -60 0 -60 0 0 -130 0 -130 -55 0 -55 0 0 305 0 305 130 0 130 0 0
-45z"/>
<path d="M1364 1560 c-43 -10 -98 -45 -129 -81 -19 -24 -25 -42 -25 -80 0 -41
-5 -55 -34 -86 -55 -62 -58 -74 -37 -134 20 -60 18 -71 -15 -112 -30 -35 -31
-85 -4 -120 25 -32 25 -51 -1 -94 -36 -58 -23 -118 38 -175 40 -38 95 -47 276
-48 125 0 159 -3 163 -14 8 -20 -12 -85 -50 -169 -46 -101 -57 -138 -59 -204
-2 -86 10 -130 50 -174 36 -40 96 -65 127 -53 18 7 19 12 35 137 17 132 40
181 116 257 51 51 71 80 96 140 78 189 149 292 210 305 l29 7 -2 316 -3 316
-140 28 c-77 15 -192 32 -255 38 -131 11 -340 12 -386 0z m204 -202 l-3 -43
-77 -3 -78 -3 0 -84 0 -85 60 0 60 0 0 -45 0 -45 -60 0 -60 0 0 -130 0 -130
-55 0 -55 0 0 305 0 305 136 0 135 0 -3 -42z"/>
</g>
</svg>
